<svg xmlns="http://www.w3.org/2000/svg" preserveAspectRatio="xMidYMid" width="253" height="125.5" viewBox="0 0 506 251"><defs><style>.cls-1{fill:#fff;fill-rule:evenodd}</style></defs><path d="M502.524 150.733c-2.32 2.314-5.157 3.47-8.517 3.47-3.362 0-6.17-1.156-8.43-3.47-2.26-2.313-3.39-5.145-3.39-8.5 0-3.353 1.13-6.16 3.39-8.414 2.26-2.256 5.068-3.384 8.43-3.384 3.36 0 6.198 1.128 8.517 3.383 2.316 2.254 3.476 5.06 3.476 8.412 0 3.356-1.16 6.188-3.476 8.5zm-78.56 99.92l-36.675-81.186a53.61 53.61 0 0 1 8.863-3.122c3.13-.808 6.545-1.214 10.255-1.214l23.117 55.51 23.117-55.51c3.707 0 7.154.407 10.342 1.215 3.186.81 6.11 1.85 8.777 3.122l-36.5 81.185h-11.297zm-95.597-57.073h50.23v16.132h-50.23V193.58zm-25.81 22.81c-4.926 1.91-10.545 3.067-16.86 3.47-6.316.407-12.774-.027-19.38-1.3-1.623-4.164-2.432-8.44-2.432-12.837v-2.082c8.69 1.736 15.496 2.256 20.423 1.562 4.923-.694 8.603-1.908 11.037-3.643 2.433-1.735 3.938-3.557 4.52-5.465.577-1.908.868-3.21.868-3.903 0-.577-.147-1.648-.435-3.21-.29-1.56-1.043-3.15-2.26-4.77-1.216-1.618-3.014-3.035-5.387-4.25-2.376-1.214-5.708-1.82-9.994-1.82-3.362 0-6.403.723-9.125 2.167-2.723 1.447-5.07 3.47-7.038 6.07-1.972 2.603-3.506 5.725-4.606 9.368-1.103 3.643-1.65 7.606-1.65 11.883 0 4.05.607 7.807 1.824 11.276 1.216 3.47 2.867 6.506 4.953 9.108 2.086 2.602 4.52 4.656 7.3 6.158 2.78 1.504 5.793 2.255 9.04 2.255 2.78.233 5.387-.027 7.82-.78 2.434-.75 4.576-1.706 6.43-2.863a36.286 36.286 0 0 0 5.91-4.51l10.256 10.408c-3.942 3.816-8.518 6.825-13.732 9.02C294.823 249.9 289.26 251 283.352 251c-6.143 0-11.907-1.16-17.295-3.47-5.388-2.313-10.08-5.465-14.078-9.455-4-3.99-7.158-8.644-9.474-13.965-2.32-5.317-3.477-11.042-3.477-17.173 0-6.128 1.157-11.883 3.476-17.26 2.316-5.378 5.475-10.062 9.473-14.05 3.996-3.99 8.69-7.14 14.077-9.456 5.388-2.31 11.152-3.468 17.295-3.468 4.98 0 9.733.897 14.252 2.69 4.52 1.793 8.43 4.192 11.733 7.198 3.302 3.008 5.91 6.478 7.82 10.408 1.913 3.933 2.752 8.04 2.52 12.316-.232 5.09-1.91 9.398-5.04 12.924-3.128 3.53-7.155 6.245-12.08 8.153zm-90.38 28.363c-5.39-2.312-10.082-5.464-14.08-9.454-3.997-3.99-7.156-8.644-9.472-13.965-2.32-5.318-3.477-11.042-3.477-17.174v-65.744a48.893 48.893 0 0 1 9.647-3.903c3.416-.98 7.27-1.475 11.558-1.475v71.123c0 4.05.61 7.867 1.825 11.45 1.217 3.586 2.868 6.71 4.954 9.368 2.086 2.662 4.52 4.77 7.3 6.332 2.78 1.56 5.793 2.34 9.038 2.34v14.573c-6.143 0-11.906-1.155-17.294-3.47zm-1.13-77.714h18.423v15.958h-18.424v-15.96zm282.004.78c3.418-.982 7.27-1.475 11.56-1.475v76.5c-4.984 2.662-10.663 4.337-17.034 5.03h-4.17v-76.153a48.86 48.86 0 0 1 9.645-3.903zM324.416 124.552c-3.42.927-7.273 1.388-11.56 1.388V84.654c0-4.164-.493-8.037-1.476-11.623-.986-3.582-2.377-6.705-4.172-9.366-1.798-2.66-3.97-4.77-6.518-6.332-2.55-1.56-5.448-2.342-8.69-2.342-4.29 0-8.026 1.388-11.21 4.163-3.19 2.776-5.593 6.42-7.214 10.93-2.086-6.823-5.622-12.72-10.603-17.695 3.707-3.7 7.995-6.592 12.862-8.674 4.867-2.08 10.255-3.122 16.165-3.122 6.14 0 11.79 1.157 16.946 3.47 5.155 2.314 9.587 5.464 13.297 9.454 3.707 3.99 6.605 8.646 8.69 13.964 2.086 5.32 3.13 11.045 3.13 17.174v36.08a45.262 45.262 0 0 1-9.647 3.818zm-53.274-39.898v36.08a45.262 45.262 0 0 1-9.646 3.818c-3.42.927-7.214 1.388-11.385 1.388V84.654c0-4.164-.493-8.037-1.477-11.623-.985-3.582-2.376-6.705-4.17-9.366-1.8-2.66-4-4.77-6.606-6.332-2.607-1.56-5.475-2.342-8.604-2.342-3.245 0-6.17.78-8.777 2.342-2.607 1.56-4.81 3.673-6.605 6.332-1.797 2.66-3.187 5.784-4.17 9.367-.986 3.587-1.478 7.46-1.478 11.624v36.08c-2.898 1.622-6.056 2.893-9.473 3.818-3.42.927-7.274 1.388-11.56 1.388V84.654c0-6.13 1.044-11.853 3.13-17.174 2.085-5.318 4.98-9.975 8.69-13.964 3.707-3.99 8.14-7.14 13.297-9.455 5.154-2.31 10.803-3.468 16.946-3.468 6.024 0 11.616 1.157 16.773 3.47 5.155 2.314 9.587 5.464 13.297 9.454 3.707 3.99 6.605 8.646 8.69 13.964 2.086 5.32 3.13 11.045 3.13 17.174zm-109.76 9.454c-4.926 1.908-10.545 3.065-16.86 3.47-6.317.406-12.775-.028-19.38-1.302-1.624-4.163-2.433-8.44-2.433-12.837v-2.082c8.69 1.734 15.495 2.255 20.422 1.56 4.923-.693 8.603-1.907 11.037-3.642 2.432-1.735 3.937-3.556 4.518-5.464.578-1.91.87-3.21.87-3.904 0-.577-.148-1.647-.436-3.21-.29-1.56-1.042-3.148-2.26-4.77-1.216-1.617-3.014-3.035-5.387-4.25-2.377-1.213-5.71-1.82-9.995-1.82-3.362 0-6.403.723-9.125 2.168-2.724 1.447-5.07 3.47-7.04 6.07-1.97 2.603-3.505 5.726-4.605 9.37-1.103 3.642-1.65 7.604-1.65 11.88 0 4.05.607 7.808 1.824 11.277 1.217 3.47 2.868 6.505 4.953 9.107 2.086 2.602 4.52 4.657 7.3 6.158 2.782 1.505 5.793 2.256 9.04 2.256 2.78.233 5.387-.028 7.82-.78 2.434-.752 4.576-1.706 6.43-2.863a36.35 36.35 0 0 0 5.91-4.51l10.256 10.41c-3.94 3.815-8.517 6.824-13.73 9.02-5.216 2.195-10.778 3.295-16.687 3.295-6.143 0-11.906-1.157-17.294-3.47-5.39-2.31-10.082-5.464-14.08-9.454-3.997-3.988-7.156-8.642-9.472-13.963-2.32-5.318-3.476-11.042-3.476-17.173 0-6.13 1.157-11.883 3.476-17.26 2.316-5.378 5.475-10.062 9.473-14.052 3.997-3.99 8.69-7.14 14.08-9.454 5.387-2.312 11.15-3.47 17.293-3.47 4.98 0 9.733.898 14.252 2.69 4.52 1.794 8.43 4.192 11.733 7.198 3.303 3.01 5.91 6.478 7.822 10.41 1.912 3.93 2.75 8.038 2.52 12.315-.233 5.09-1.91 9.398-5.04 12.925-3.13 3.53-7.156 6.244-12.08 8.153zM75.346 115.79c-3.998 3.99-8.69 7.144-14.078 9.456-5.39 2.312-11.097 3.47-17.12 3.47-6.144 0-11.88-1.158-17.21-3.47-5.33-2.312-9.993-5.465-13.99-9.455-3.998-3.988-7.157-8.642-9.473-13.963C1.155 96.51 0 90.785 0 84.654V5.204a45.398 45.398 0 0 1 9.645-3.816C13.062.463 16.858 0 21.03 0v85c0 4.05.608 7.836 1.825 11.363 1.217 3.53 2.868 6.62 4.954 9.28 2.084 2.662 4.545 4.77 7.386 6.332 2.838 1.56 5.822 2.342 8.95 2.342 3.13 0 6.112-.78 8.952-2.342 2.838-1.56 5.3-3.67 7.387-6.332 2.086-2.66 3.737-5.81 4.954-9.454 1.216-3.644 1.824-7.487 1.824-11.536 0-4.164-.608-8.037-1.825-11.623-1.218-3.582-2.87-6.705-4.955-9.366-2.086-2.66-4.55-4.77-7.387-6.332-2.84-1.56-5.822-2.342-8.95-2.342-3.71 0-7.157 1.07-10.343 3.21-3.188 2.14-5.823 5.003-7.908 8.586V44.582c5.676-2.66 11.76-3.99 18.25-3.99 6.024 0 11.732 1.157 17.12 3.47 5.39 2.314 10.08 5.464 14.08 9.454 3.997 3.99 7.153 8.646 9.472 13.964 2.315 5.32 3.475 11.045 3.475 17.174 0 6.13-1.16 11.855-3.476 17.173-2.32 5.32-5.476 9.975-9.474 13.964z" class="cls-1"/></svg>