
<svg xmlns="http://www.w3.org/2000/svg" preserveAspectRatio="xMidYMid" width="300" height="300" viewBox="0 0 300 300"><defs><style>.cls-1{fill:#fff;filter:url(#color-overlay-1);fill-rule:evenodd}</style><filter id="color-overlay-1" filterUnits="userSpaceOnUse"><feFlood flood-color="#fff"/><feComposite operator="in" in2="SourceGraphic"/><feBlend in2="SourceGraphic" result="solidFill"/></filter></defs><path d="M297.18 96.612c-1.99 1.366-5.14.945-7.837 1.65-3.422.892-6.595 1.853-9.592 3.178-11.52 5.092-20.582 13.422-26.905 23.787-3.067 5.027-4.5 10.807-6.084 17.43-.637 2.672-.088 5.8-.7 8.595v1.65c-.37 1.65-.176 3.465-.585 5.18-.99 4.144-1.313 8.356-2.574 12.247-2.173 6.706-4.36 13.002-7.018 19.076-1.328 3.034-3.118 6.084-4.796 8.832-1.522 2.492-2.805 4.945-4.446 7.3-7.846 11.268-17.515 20.05-29.362 27.32-6.733 4.133-14.77 6.37-23.397 8.597-2.97.767-6.163.604-9.24 1.295-1.12.252-2.376.01-3.393.236h-3.04c-2 0-4.537.278-6.318-.118h-2.107c-1.27-.283-2.713-.04-4.095-.353-1.44-.326-3.04-.226-4.562-.59l-10.762-1.883-9.476-.942h-2.456c-1.544-.33-6.535-.34-8.072 0-.688.152-1.68-.003-2.223.118H106.5l-6.903.824c-5.81 1.43-11.363 2.336-16.377 4.475-15.207 6.487-26.33 16.492-34.627 29.91-2.3 3.718-4.125 7.896-5.85 12.13-.85 2.09-.972 4.99-4.094 4.356-.578-1.17-.48-2.87-.118-4.24.75-2.834 1.302-5.298 2.223-7.77 2.728-7.328 5.828-13.874 9.943-19.784 1.223-1.757 2.578-3.454 3.86-5.183.527-.71 1.345-1.297 1.873-2.002 1.775-2.366 3.968-4.69 6.318-6.476.59-.45 1.045-1.2 1.637-1.65 1.575-1.194 3.08-2.517 4.68-3.65 5.46-3.87 11.78-7.1 18.717-9.42 3.66-1.224 7.6-1.74 11.58-2.71 2.12-.516 4.2-.1 6.435-.588 2.04-.445 4.665-.235 7.02-.236 4.885 0 9.795.172 13.92 1.178 2.022.492 4.145.37 6.083.824l9.125.824c.723.163 1.76-.012 2.34.118h6.433c5.144 0 10.28-.027 14.624-1.06l3.626-.47c3.176-.827 6.437-1.22 9.476-2.238 6.953-2.333 13.387-4.986 19.068-8.596 2.642-1.68 5.12-3.668 7.604-5.535.507-.38.902-1.03 1.403-1.412 1.62-1.233 2.916-2.688 4.328-4.122l1.87-1.766c3.08-4.094 6.455-7.924 9.243-12.365 5.38-8.568 9.052-18.435 12.518-28.968 1.708-5.19 2.464-10.775 3.86-16.25.577-2.263.645-4.648 1.17-6.83.352-1.46.12-2.733.468-4.24.59-2.566.743-5.134 1.52-7.537 4.395-13.57 11.173-23.92 21.643-31.324 1.222-.864 2.457-1.893 3.743-2.708 1.028-.652 2.1-1.003 3.158-1.65 1.11-.677 2.363-1.516 3.744-1.883v-.117c-1.52-.314-3.02-1.165-4.445-1.65-2.722-.924-5.548-1.558-8.307-2.354-1.926-.556-3.736-.546-5.732-1.06-10.1-2.603-25.652-1.672-33.924 1.766-5.744 2.388-10.614 5.532-14.623 9.656-1.31 1.35-2.507 3.084-3.626 4.593-.538.724-1.026 1.596-2.106 1.765l-.116-.353c-.558-.877.238-2.85.468-3.533.398-1.18.466-2.3.936-3.416.694-1.648 1.834-3.2 2.808-4.592 5.06-7.24 11.858-12.603 21.057-15.662 2.76-.918 5.726-1.19 8.773-1.884 1.028-.234 3.475.114 4.212-.353 19.405-.416 35.245 6.13 47.143 13.424 2.982 1.827 6.288 3.042 9.126 4.946 1.15.772 2.562 1.39 2.574 3.297l-.82.942zm-109.378.707c-.787 3.24-1.263 6.404-2.34 9.302-2.085 5.61-4.81 10.46-7.954 14.955-.824 1.178-1.496 2.39-2.457 3.415-.204-.074-.113-.023-.233-.118-.976-.51-1.47-4.71-2.106-5.888-2.217-4.118-5.355-7.45-8.07-11.07-.68-.903-1.78-1.572-2.457-2.472-1.836-2.443-4.355-4.748-6.785-6.594-.788-.6-1.43-1.522-2.223-2.12-2.114-1.593-4.163-3.304-6.317-4.828-6.75-4.777-14.293-8.262-23.28-10.834-9.14-2.616-20.664-.897-28.075 1.884-1.724.647-3.344.95-5.03 1.65a390.67 390.67 0 0 0-8.54 3.65c-1.277.566-2.577.934-3.744 1.648-5.216 3.19-10.11 6.755-15.91 9.303-3.285 1.443-6.83 2.235-10.646 3.18-3.12.77-8.88.742-11.932 0-2.628-.64-4.982-.71-7.253-1.65-3.18-1.314-6.352-2.6-9.126-4.356-1.795-1.138-3.472-2.53-5.147-3.77-2.063-1.527-6.867-5.142-7.253-8.006 1.424.015 2.038.966 2.925 1.532 1.586 1.013 3.398 1.943 5.146 2.708 2.65 1.16 5.606 1.7 8.657 2.473l2.807.236c1.67.366 4.756.523 6.55.116 1.016-.23 2.087-.04 2.926-.235l3.393-.352c2.622-.67 5.325-1.04 7.836-1.885a124.942 124.942 0 0 0 10.88-4.24c5.97-2.65 11.208-6.524 17.196-9.184 5.094-2.263 10.408-4.048 16.027-5.89 3.43-1.123 7.184-1.25 10.878-2.12 1.21-.077 2.418-.156 3.627-.234 1.82-.397 6.136-.557 8.07-.118 1.093.04 2.185.08 3.277.118 1.815.42 3.926.482 5.615.942 3.12.85 6.004 1.09 8.774 2.237 5.886 2.437 11.185 5.052 16.027 8.48 2.083 1.473 3.935 3.282 5.967 4.827l1.17 1.295c2.27 1.73 4.37 4.07 6.082 6.36.528.704 1.345 1.292 1.872 2 2.522 3.395 5.668 6.983 7.604 10.835h.117c.31-1.727.623-3.454.935-5.18l.35-4.712c.308-1.437.03-4.554-.233-5.77-.327-1.507-.01-2.815-.35-4.24-.77-3.223-1.34-6.43-2.458-9.184-.73-1.8-1.138-3.415-1.988-5.064-6.58-12.763-17.468-20.472-31.118-26.142-3.96-1.645-8.438-2.468-12.868-3.65l-6.434-1.06c-3.748-1.21-7.143-2.766-10.06-4.83-3.928-2.776-7.347-6.863-9.008-11.892-.49-1.486-.59-3.104-.936-4.71v-2.12c0-2.412.083-6.573 1.872-6.948.862 1.653.7 4.398 1.404 6.123 1.544 3.783 4.298 7.152 7.37 9.42 4.958 3.665 10.858 5.614 17.664 7.538 2.792.79 5.7.567 8.657 1.296 3.192.787 6.387 1.292 9.24 2.473 17.57 7.268 30.894 18.843 38.254 36.386 1.01 2.406 1.81 5.157 2.573 7.89l.82 4.946c.352 1.55.466 6.066.116 7.654-.358 1.626.018 3.076-.35 4.593zm-84.344-46.75c1.356 1.02 2.76 2.046 4.21 2.943 1.083.667 2.518 1.15 2.224 2.826-3.31 2.13-7.606 1.238-10.53-.59-5.543-3.467-9.48-8.95-12.165-15.31-.793-1.877-2.21-4.857-1.99-7.182.58-.443 1.226-1.125 1.756-1.648h1.053c1.31 1.85 2.433 3.887 3.743 5.77 2.502 3.596 5.378 6.946 8.422 10.01 1.05 1.056 2.082 2.28 3.276 3.18zM25.196 208.717c.724-.16 1.806.218 2.34-.118.944.057 2.344.122 3.276.236.548.845 1.185 1.358 1.286 2.708-.297.366-.31.647-.82.825-.545.397-1.398.326-2.104.587-1.747.646-3.623 1.148-5.38 1.885-4.622 1.935-9.333 3.97-13.22 6.712-1.218.86-2.515 1.828-3.627 2.826-1.227 1.1-1.914 2.812-4.21 2.826-1.69-2.616-.117-6.195 1.168-8.007 3.487-4.916 9.245-7.595 15.676-9.54 1.8-.544 3.72-.52 5.616-.942zm62.18-34.932c-1.376.106-2.713.625-4.198 1.35-1.848.902-3.48 2.42-5.097 3.814-4.484 3.87-7.574 8.612-11.516 13.007-2.874 3.203-6.21 5.76-9.63 7.76-4.648 2.716-11.05 5.248-13.492 2.808-.095-.1-.007-.256.187-.36.383-.165 1.063-.396 1.373-.527a22.814 22.814 0 0 0 4.813-2.658c2.524-1.832 5.12-4.03 7.368-6.454 8.478-9.137 18.8-20.958 29.45-21.17 2.28-.044 4.448 1.07 4.336 3.322 0 0-1.8-1.03-3.595-.892zm6.723-24.77h2.105c2.46 0 4.814.06 6.902-.472 1.36-.347 2.84-.78 4.21-.236.21.358.326.453.352 1.06-.29.415-.316.976-.586 1.413-.883 1.43-2.343 2.865-3.86 3.652-6.753 3.5-17.353.643-22.812-1.767-1.884-.832-3.37-1.73-4.913-2.826-.6-.426-1.3-.475-1.405-1.414-.722-1.055.412-2.412.82-2.826 1.532-.022 2.567.555 3.742.942 1.537.505 3.186.65 4.68 1.06l7.72 1.177c1.01.23 2.138.03 3.042.235zM57.716 123.93c-2.76.692-6.737.43-9.24-.235-1.37-.365-2.484-.405-3.745-.825-4.226-1.406-7.826-3.558-11.113-5.888-2.393-1.695-4.605-3.396-6.318-5.77-.73-1.01-1.633-1.99-1.287-3.768.214-.09.63-.21.82-.353 2.355.233 3.34 1.32 4.795 2.355 1.782 1.265 3.917 2.51 5.966 3.415 7.796 3.438 19.01 5.474 30.182 4.24.076.22.11.46.117.823-.43.785-.858 1.57-1.287 2.356-.665.666-3.68 2.063-4.68 2.473-1.318.54-2.79.82-4.21 1.177zM77.37 135.59h1.872c2.146.49 4.944-.123 7.02.118.26.393.43.376.467 1.06-.487.506-.836 1.235-1.405 1.648-4.137 3.004-13.65 4.576-20.004 2.473a31.512 31.512 0 0 1-8.89-4.593c-.76-.56-1.364-1.437-2.105-2.002-1.724-1.313-4.688-4.013-4.68-6.948.148-.076.243-.128.352-.235 2.29-.07 3.61 1.308 5.147 2.12 2.69 1.418 5.71 2.42 8.657 3.532 3.223 1.216 6.84 1.588 10.412 2.473 1.06.263 2.198.127 3.16.353zM39 230.15c1.404-.59 2.808-1.177 4.212-1.766.624-.232 1.37-.228 1.87-.59 1.255.078 2.434 1.24 2.458 2.592-1.85 1.913-4.19 3.566-6.317 5.18-.81.617-1.416 1.625-2.223 2.238-3.144 2.39-6.79 6.78-9.007 10.128-1.242 1.875-1.91 4.32-3.276 6.123-.37.49-1.237.902-1.872.47-.485-.328-.575-1.054-.818-1.648-1.364-3.323-.422-6.607.935-9.185 3.226-6.125 8.218-10.025 14.038-13.542z" class="cls-1"/></svg>